name C:/MyDriveSym/Projects/mobilecap/Data\Session20210823_0001\mocap\ForceDataProcessed\DJAsym1_forces.mot
datacolumns 28
datarows 8
range 0.98450000 0.98800000
endheader 
time	R_ground_force_vx	R_ground_force_vy	R_ground_force_vz	R_ground_force_px	R_ground_force_py	R_ground_force_pz	R_ground_torque_x	R_ground_torque_y	R_ground_torque_z	L_ground_force_vx	L_ground_force_vy	L_ground_force_vz	L_ground_force_px	L_ground_force_py	L_ground_force_pz	L_ground_torque_x	L_ground_torque_y	L_ground_torque_z	3_ground_force_vx	3_ground_force_vy	3_ground_force_vz	3_ground_force_px	3_ground_force_py	3_ground_force_pz	3_ground_torque_x	3_ground_torque_y	3_ground_torque_z	
          0.98450000	       -113.32854400	        546.05306800	        -35.54905100	         -0.16309700	          0.00600000	         -0.40415500	          0.00000000	         -5.09417900	          0.00000000	       -111.90473800	        600.08661100	         56.68755400	         -0.17535300	          0.00600000	         -0.75082600	          0.00000000	          4.29311300	          0.00000000	          0.00000000	          0.00000000	          0.00000000	          0.00000000	          0.00000000	          0.00000000	          0.00000000	          0.00000000	          0.00000000	
          0.98500000	       -112.71822600	        545.31434700	        -35.23872500	         -0.16326200	          0.00600000	         -0.40416600	          0.00000000	         -5.10764000	          0.00000000	       -111.67714000	        599.70821700	         56.61209700	         -0.17538300	          0.00600000	         -0.75081700	          0.00000000	          4.29980800	          0.00000000	          0.00000000	          0.00000000	          0.00000000	          0.00000000	          0.00000000	          0.00000000	          0.00000000	          0.00000000	          0.00000000	
          0.98550000	       -112.12301400	        544.57028600	        -34.94394500	         -0.16342500	          0.00600000	         -0.40417500	          0.00000000	         -5.12000400	          0.00000000	       -111.46748700	        599.38586000	         56.54738300	         -0.17541700	          0.00600000	         -0.75080800	          0.00000000	          4.30666500	          0.00000000	          0.00000000	          0.00000000	          0.00000000	          0.00000000	          0.00000000	          0.00000000	          0.00000000	          0.00000000	          0.00000000	
          0.98600000	       -111.54380600	        543.82228900	        -34.66470700	         -0.16358600	          0.00600000	         -0.40418300	          0.00000000	         -5.13131000	          0.00000000	       -111.27597500	        599.11989700	         56.49381800	         -0.17545500	          0.00600000	         -0.75079900	          0.00000000	          4.31366400	          0.00000000	          0.00000000	          0.00000000	          0.00000000	          0.00000000	          0.00000000	          0.00000000	          0.00000000	          0.00000000	          0.00000000	
          0.98650000	       -110.98146700	        543.07172300	        -34.40090100	         -0.16374600	          0.00600000	         -0.40418800	          0.00000000	         -5.14161400	          0.00000000	       -111.10262100	        598.91056200	         56.45171400	         -0.17549700	          0.00600000	         -0.75079200	          0.00000000	          4.32078300	          0.00000000	          0.00000000	          0.00000000	          0.00000000	          0.00000000	          0.00000000	          0.00000000	          0.00000000	          0.00000000	          0.00000000	
          0.98700000	       -110.43681000	        542.31992400	        -34.15232300	         -0.16390500	          0.00600000	         -0.40419200	          0.00000000	         -5.15096600	          0.00000000	       -110.94725200	        598.75795400	         56.42130500	         -0.17554400	          0.00600000	         -0.75078500	          0.00000000	          4.32799000	          0.00000000	          0.00000000	          0.00000000	          0.00000000	          0.00000000	          0.00000000	          0.00000000	          0.00000000	          0.00000000	          0.00000000	
          0.98750000	       -109.91058300	        541.56822000	        -33.91867900	         -0.16406200	          0.00600000	         -0.40419400	          0.00000000	         -5.15941000	          0.00000000	       -110.80950600	        598.66201400	         56.40274100	         -0.17559500	          0.00600000	         -0.75077800	          0.00000000	          4.33524200	          0.00000000	          0.00000000	          0.00000000	          0.00000000	          0.00000000	          0.00000000	          0.00000000	          0.00000000	          0.00000000	          0.00000000	
          0.98800000	       -109.40345600	        540.81794900	        -33.69957600	         -0.16421700	          0.00600000	         -0.40419400	          0.00000000	         -5.16700300	          0.00000000	       -110.68884100	        598.62252600	         56.39608100	         -0.17565000	          0.00600000	         -0.75077300	          0.00000000	          4.34249800	          0.00000000	          0.00000000	          0.00000000	          0.00000000	          0.00000000	          0.00000000	          0.00000000	          0.00000000	          0.00000000	          0.00000000	
